<svg width="71" height="20" viewBox="0 0 71 20" fill="none" xmlns="http://www.w3.org/2000/svg">
<path d="M0.423648 19.6639L4.89014 0.336134H69.859L66.7731 19.6639H0.423648Z" fill="#3232E0" stroke="white" stroke-width="0.672269"/>
<path d="M13.9549 8.10688L18.2463 4.04504H21.0543L18.5465 16.054H16.3743L18.3523 6.53512L14.2374 10.4204H12.9483L10.4052 6.4998L8.39193 16.054H6.21973L8.72747 4.04504H11.2882L13.9549 8.10688Z" fill="white"/>
<path d="M29.6504 10.5263L28.9793 13.7758C28.891 14.1996 28.9616 14.3233 29.4031 14.3233H29.6857L29.3148 16.054H28.061C27.3192 16.054 26.913 15.7537 26.8247 15.2063C26.1183 15.8244 25.1823 16.2835 23.9991 16.2835C22.2508 16.2835 21.0322 15.3122 21.0322 13.8994C21.0322 11.8862 23.0278 10.7029 25.3943 10.7029H27.6371L27.6724 10.5263C27.902 9.41373 27.1956 8.81328 26.03 8.81328C25.0411 8.81328 24.2993 9.30777 23.8049 10.0672L22.0212 9.44905C22.7276 8.19518 24.1051 7.08259 26.2949 7.08259C28.5731 7.08259 30.0566 8.54838 29.6504 10.5263ZM23.0984 13.6345C23.0984 14.2526 23.6459 14.6588 24.5996 14.6588C25.4649 14.6588 26.4009 14.2879 27.0367 13.5815L27.3192 12.2217H25.3413C24.1051 12.2217 23.0984 12.6809 23.0984 13.6345Z" fill="white"/>
<path d="M39.0014 7.15323L40.2377 8.47774L36.4937 11.3563L39.4606 16.054H37.0941L34.8866 12.5926L33.4738 13.6875L32.9793 16.054H30.9307L33.4385 4.04504H35.4871L34.0213 11.0561L39.0014 7.15323Z" fill="white"/>
<path d="M45.3159 7.11791C48.2828 7.11791 49.9076 9.51969 48.9892 12.3453H42.349C42.4197 13.6698 43.2673 14.5528 44.7155 14.5528C45.7574 14.5528 46.5875 14.023 47.1702 13.246L48.8656 14.023C47.7707 15.6654 46.2696 16.3365 44.6448 16.3365C42.1018 16.3365 40.3711 14.7294 40.3711 12.3453C40.3711 9.60799 42.6139 7.11791 45.3159 7.11791ZM45.1393 8.8486C43.9561 8.8486 43.0731 9.64331 42.6492 10.7029H47.3115C47.1879 9.57267 46.4109 8.8486 45.1393 8.8486Z" fill="white"/>
<path d="M52.0188 16.054H49.9702L51.7892 7.38281H53.8378L52.0188 16.054Z" fill="white"/>
<path d="M60.7088 9.18415H58.5013L57.6536 13.193C57.5123 13.8641 57.7419 14.1996 58.5366 14.1996H59.6492L59.2607 16.054H57.7066C55.7287 16.054 55.1989 15.0826 55.5521 13.4403L56.4527 9.18415H54.9693L55.3401 7.38281H56.8236L57.3887 4.73378H59.4373L58.8722 7.38281H61.0974L60.7088 9.18415Z" fill="white"/>
<path d="M61.0916 16.054L61.5684 13.7758H63.8995L63.4051 16.054H61.0916Z" fill="white"/>
<path fill-rule="evenodd" clip-rule="evenodd" d="M53.0241 3.35938C53.1602 4.22324 53.8157 4.90055 54.6526 5.04341C53.8157 5.18459 53.1602 5.8619 53.0241 6.72745C52.8879 5.86358 52.2325 5.18459 51.3955 5.04341C52.2325 4.90224 52.8879 4.22492 53.0241 3.35938Z" fill="white"/>
</svg>
